<svg id="Capa_1" enable-background="new 0 0 512 512" height="512" viewBox="0 0 512 512" width="512" xmlns="http://www.w3.org/2000/svg"><g><path d="m43.544 251.944 30.24-12.59c3.321-1.383 5.193-4.929 4.46-8.451-1.8-8.654-2.713-17.564-2.713-26.483 0-8.915.913-17.829 2.713-26.494.731-3.522-1.14-7.067-4.46-8.45l-30.242-12.591c-6.096-2.536-10.806-7.576-12.922-13.827-2.116-6.25-1.436-13.112 1.867-18.829l16.771-29.051c3.296-5.712 8.896-9.73 15.364-11.024 6.473-1.294 13.197.263 18.444 4.273l26.05 19.92c2.858 2.185 6.867 2.033 9.551-.363 1.997-1.783 4.003-3.469 5.962-5.011 3.255-2.561 3.818-7.276 1.256-10.532s-7.277-3.817-10.532-1.256c-.645.507-1.294 1.028-1.945 1.562l-21.233-16.235c-8.675-6.632-19.792-9.208-30.496-7.065-10.699 2.14-19.962 8.787-25.414 18.234l-16.769 29.048c-5.459 9.452-6.583 20.801-3.085 31.139 3.5 10.339 11.288 18.674 21.367 22.867l24.646 10.261c-1.258 7.719-1.894 15.573-1.894 23.425 0 7.854.635 15.704 1.893 23.416l-24.644 10.26c-10.081 4.194-17.869 12.529-21.369 22.868-3.499 10.337-2.375 21.687 3.083 31.135l8.02 13.9c1.389 2.407 3.91 3.753 6.503 3.753 1.272 0 2.561-.324 3.741-1.005 3.588-2.07 4.818-6.657 2.748-10.244l-8.021-13.903c-3.301-5.715-3.981-12.577-1.866-18.827 2.118-6.253 6.827-11.293 12.926-13.83z"/><path d="m280.938 204.416c0-41.924-34.108-76.032-76.032-76.032-41.925 0-76.033 34.108-76.033 76.032 0 41.925 34.108 76.033 76.033 76.033 41.924 0 76.032-34.108 76.032-76.033zm-137.065 0c0-33.653 27.379-61.032 61.033-61.032s61.032 27.379 61.032 61.032-27.379 61.033-61.032 61.033-61.033-27.38-61.033-61.033z"/><path d="m421.611 290.67h-30.511c4.772-9.155 5.626-19.89 2.301-29.712-3.5-10.335-11.285-18.668-21.358-22.862l-24.653-10.26c1.263-7.732 1.901-15.583 1.901-23.416 0-7.832-.639-15.685-1.902-23.425l24.654-10.261c10.073-4.193 17.858-12.526 21.358-22.861 3.5-10.337 2.38-21.688-3.075-31.142l-16.771-29.052c-5.46-9.453-14.731-16.099-25.436-18.236-10.698-2.133-21.809.441-30.475 7.07l-21.227 16.231c-12.219-10.034-25.813-17.895-40.548-23.447l3.437-26.459c1.407-10.822-1.916-21.732-9.119-29.933-7.201-8.201-17.592-12.905-28.506-12.905h-33.54c-10.914 0-21.304 4.701-28.507 12.897-7.205 8.199-10.533 19.11-9.129 29.942l3.446 26.462c-2.566.97-5.102 2.012-7.583 3.119-3.783 1.687-5.483 6.121-3.796 9.904 1.687 3.784 6.121 5.482 9.904 3.796 3.9-1.739 7.951-3.302 12.038-4.645 3.421-1.125 5.561-4.522 5.095-8.094l-4.229-32.475c-.849-6.549 1.164-13.149 5.522-18.108 4.355-4.955 10.638-7.798 17.239-7.798h33.54c6.6 0 12.883 2.844 17.239 7.803 4.355 4.958 6.365 11.556 5.514 18.101l-4.22 32.48c-.464 3.57 1.675 6.967 5.095 8.091 17.002 5.589 32.426 14.507 45.842 26.505 2.685 2.4 6.695 2.555 9.556.367l26.051-19.92c5.24-4.008 11.956-5.566 18.427-4.274 6.474 1.292 12.08 5.312 15.382 11.027l16.769 29.048c3.298 5.717 3.976 12.582 1.858 18.833-2.116 6.25-6.823 11.289-12.914 13.824l-30.25 12.59c-3.321 1.382-5.193 4.928-4.461 8.45 1.807 8.699 2.723 17.613 2.723 26.495 0 8.885-.916 17.795-2.723 26.483-.732 3.522 1.14 7.069 4.461 8.451l30.25 12.589c6.091 2.536 10.798 7.575 12.914 13.825 2.117 6.252 1.439 13.117-1.857 18.831l-3.505 6.07h-36.07c-4.143 0-7.5 3.358-7.5 7.5s3.357 7.5 7.5 7.5h83.851c33.624 0 60.979 27.355 60.979 60.98v104.2c0 14.419-11.73 26.15-26.149 26.15-12.188 0-22.653-8.286-25.45-20.15l-13.12-55.67c-.665-2.823-2.898-5.009-5.734-5.614-2.832-.604-5.768.479-7.527 2.785-8.881 11.637-22.355 18.311-36.968 18.311h-30.511c-14.606 0-28.077-6.674-36.958-18.311-1.76-2.306-4.693-3.388-7.527-2.785-2.836.605-5.069 2.792-5.734 5.614l-13.12 55.67c-2.8 11.865-13.269 20.151-25.463 20.151-14.419 0-26.15-11.731-26.15-26.15v-104.2c0-33.625 27.355-60.98 60.98-60.98h19.6c4.143 0 7.5-3.358 7.5-7.5s-3.357-7.5-7.5-7.5h-19.6c-41.895 0-75.98 34.084-75.98 75.98v27.18h-19.04c-6.601 0-12.884-2.843-17.24-7.799-4.358-4.959-6.371-11.559-5.523-18.103l4.23-32.48c.465-3.572-1.674-6.97-5.096-8.094-17.011-5.589-32.434-14.506-45.839-26.503-2.685-2.403-6.698-2.557-9.557-.369l-26.051 19.92c-7.024 5.372-16.309 6.249-24.229 2.29-3.705-1.854-8.209-.35-10.062 3.354-1.853 3.705-.351 8.21 3.354 10.062 13.09 6.544 28.436 5.091 40.049-3.79l21.225-16.23c12.212 10.034 25.807 17.895 40.548 23.446l-3.446 26.463c-1.402 10.826 1.925 21.738 9.13 29.937 7.203 8.196 17.594 12.897 28.507 12.897h19.04v62.02c0 22.69 18.46 41.15 41.15 41.15 19.187 0 35.659-13.04 40.06-31.71l9.983-42.36c10.829 8.843 24.376 13.73 38.757 13.73h30.511c14.386 0 27.936-4.888 38.767-13.731l9.983 42.361c4.4 18.67 20.869 31.709 40.05 31.709 22.689 0 41.149-18.46 41.149-41.15v-104.2c-.001-41.896-34.084-75.98-75.98-75.98z"/><path d="m279.608 324.604c-11.946 0-21.776 9.237-22.722 20.944-11.707.946-20.945 10.776-20.945 22.722s9.238 21.776 20.945 22.722c.946 11.707 10.776 20.945 22.722 20.945s21.776-9.238 22.723-20.945c11.707-.946 20.944-10.776 20.944-22.722s-9.237-21.776-20.944-22.722c-.947-11.707-10.777-20.944-22.723-20.944zm28.667 43.666c0 4.299-3.498 7.797-7.797 7.797h-5.573c-4.143 0-7.5 3.358-7.5 7.5v5.573c0 4.299-3.498 7.797-7.797 7.797s-7.797-3.498-7.797-7.797v-5.573c0-4.142-3.357-7.5-7.5-7.5h-5.573c-4.299 0-7.797-3.498-7.797-7.797s3.498-7.797 7.797-7.797h5.573c4.143 0 7.5-3.358 7.5-7.5v-5.573c0-4.299 3.498-7.797 7.797-7.797s7.797 3.498 7.797 7.797v5.573c0 4.142 3.357 7.5 7.5 7.5h5.573c4.299 0 7.797 3.498 7.797 7.797z"/><path d="m428.315 396.859c15.765 0 28.59-12.825 28.59-28.589s-12.825-28.589-28.59-28.589-28.59 12.825-28.59 28.589 12.825 28.589 28.59 28.589zm0-42.178c7.493 0 13.59 6.096 13.59 13.589s-6.097 13.589-13.59 13.589-13.59-6.096-13.59-13.589 6.097-13.589 13.59-13.589z"/><path d="m365.528 396.859c4.143 0 7.5-3.358 7.5-7.5s-3.357-7.5-7.5-7.5h-26.28c-4.143 0-7.5 3.358-7.5 7.5s3.357 7.5 7.5 7.5z"/></g></svg>